<?xml version="1.0" encoding="utf-8"?>
<!-- Generator: Adobe Illustrator 22.0.0, SVG Export Plug-In . SVG Version: 6.00 Build 0)  -->
<svg version="1.1" id="Layer_1" xmlns="http://www.w3.org/2000/svg" xmlns:xlink="http://www.w3.org/1999/xlink" x="0px" y="0px"
	 viewBox="0 0 70 69.2" style="enable-background:new 0 0 70 69.2;" xml:space="preserve">
<style type="text/css">
	.st0{fill:#FFFFFF;stroke:#000000;stroke-width:1.304;stroke-miterlimit:10;}
	.st1{stroke:#000000;stroke-width:0.7688;stroke-miterlimit:10;}
	.st2{stroke:#000000;stroke-width:0.8872;stroke-miterlimit:10;}
	.st3{stroke:#000000;stroke-width:0.438;stroke-miterlimit:10;}
	.st4{stroke:#000000;stroke-width:0.1127;stroke-miterlimit:10;}
	.st5{stroke:#000000;stroke-width:0.1214;stroke-miterlimit:10;}
	.st6{stroke:#000000;stroke-width:0.131;stroke-miterlimit:10;}
	.st7{stroke:#000000;stroke-width:0.1392;stroke-miterlimit:10;}
	.st8{fill:#FFFFFF;stroke:#000000;stroke-width:0.1106;stroke-miterlimit:10;}
</style>
<g>
	<path class="st0" d="M61.7,53.6h-53c-3,0-5.5-2.5-5.5-5.5V6.8c0-3,2.5-5.5,5.5-5.5h53c3,0,5.5,2.5,5.5,5.5v41.4
		C67.2,51.2,64.8,53.6,61.7,53.6z"/>
	<path class="st1" d="M60.8,53.6H9.6c-3.4,0-6.2-2.8-6.2-6.2v-6.1H67v6.1C67,50.9,64.2,53.6,60.8,53.6z"/>
	<g>
		<path class="st2" d="M49.4,65.3H21c-0.4,0-0.8-0.4-0.8-0.8v-0.6c0-0.4,0.4-0.8,0.8-0.8h28.4c0.4,0,0.8,0.4,0.8,0.8v0.6
			C50.2,64.9,49.8,65.3,49.4,65.3z"/>
		<path class="st3" d="M46,64.3l-5-11.8c-0.1-0.2,0-0.5,0.3-0.6l0.2-0.1c0.2-0.1,0.5,0,0.6,0.3l5,11.8c0.1,0.2,0,0.5-0.3,0.6
			l-0.2,0.1C46.4,64.6,46.1,64.5,46,64.3z"/>
		<path class="st3" d="M24.4,63.6l5.1-11.7c0.1-0.2,0.4-0.4,0.6-0.2l0.2,0.1c0.2,0.1,0.4,0.4,0.2,0.6L25.4,64
			c-0.1,0.2-0.4,0.4-0.6,0.2l-0.2-0.1C24.4,64.1,24.2,63.8,24.4,63.6z"/>
	</g>
	<g>
		<path class="st4" d="M18.9,37.6h-3.2c-1.1,0-2-0.9-2-2V21c0-1.1,0.9-2,2-2h3.2c1.1,0,2,0.9,2,2v14.6C20.9,36.7,20,37.6,18.9,37.6z
			"/>
		<path class="st5" d="M30.9,37.6h-3.2c-1.1,0-2-0.9-2-2V18c0-1.1,0.9-2,2-2h3.2c1.1,0,2,0.9,2,2v17.6C32.9,36.7,32,37.6,30.9,37.6z
			"/>
		<path class="st6" d="M43,37.6h-3.2c-1.1,0-2-0.9-2-2V14.4c0-1.1,0.9-2,2-2H43c1.1,0,2,0.9,2,2v21.2C45,36.7,44.1,37.6,43,37.6z"/>
		<path class="st7" d="M54.8,37.6h-3.2c-1.1,0-2-0.9-2-2V11.2c0-1.1,0.9-2,2-2h3.2c1.1,0,2,0.9,2,2v24.5
			C56.8,36.7,55.9,37.6,54.8,37.6z"/>
	</g>
	<path class="st8" d="M36.6,49.8h-2.7c-0.7,0-1.3-0.6-1.3-1.3v-1c0-0.7,0.6-1.3,1.3-1.3h2.7c0.7,0,1.3,0.6,1.3,1.3v1
		C37.9,49.2,37.3,49.8,36.6,49.8z"/>
	<path class="st8" d="M27.6,49.8H25c-0.7,0-1.3-0.6-1.3-1.3v-1c0-0.7,0.6-1.3,1.3-1.3h2.7c0.7,0,1.3,0.6,1.3,1.3v1
		C28.9,49.2,28.3,49.8,27.6,49.8z"/>
	<path class="st8" d="M45.9,49.8h-2.7c-0.7,0-1.3-0.6-1.3-1.3v-1c0-0.7,0.6-1.3,1.3-1.3h2.7c0.7,0,1.3,0.6,1.3,1.3v1
		C47.2,49.2,46.6,49.8,45.9,49.8z"/>
</g>
</svg>
